<svg xmlns="http://www.w3.org/2000/svg" version="1.1" xmlns:xlink="http://www.w3.org/1999/xlink" width="512" height="512" x="0" y="0" viewBox="0 0 100 100" style="enable-background:new 0 0 512 512" xml:space="preserve" class=""><g><path d="M85 11.5c-2.1-2.1-4.8-3.2-7.8-3.2-2.9 0-5.7 1.1-7.8 3.2L10.1 70.9c-.3.3-.4.6-.5.9l-4.2 17c-.2.7 0 1.4.5 1.9.4.4.9.6 1.4.6.2 0 .3 0 .5-.1l17-4.2c.4-.1.7-.3.9-.5L85 27c4.3-4.3 4.3-11.2 0-15.5zM14.3 72.3 59.6 27l9.9 9.9-45.3 45.3zm48.1-48.1 4.2-4.2 9.9 9.9-4.2 4.2zm-49.8 52 7.7 7.7L10 86.5zm69.6-52L79.4 27l-9.9-9.9 2.8-2.8c1.3-1.3 3.1-2 5-2s3.6.7 4.9 2c2.7 2.7 2.7 7.2 0 9.9zm12.5 65.5c0 1.1-.9 2-2 2h-56c-1.1 0-2-.9-2-2s.9-2 2-2h56c1.2 0 2 .9 2 2z" fill="#fff" opacity="1" data-original="#fff"></path></g></svg>